# xmcd
#
# Track frame offsets: 
#        150
#        29712
#        54989
#        71313
#        87753
#        121870
#        206628
#
# Disc length: 4737 seconds
#
# Revision: 1
# Processed by: cddbd v1.5.2PL0 Copyright (c) Steve Scherf et al.
# Submitted via: ExactAudioCopyFreeDBPlugin 1.0
#
DISCID=58127f07
DTITLE=Isaac Hayes - The Spirit of Memphis:  1962-1976 [box set]
DYEAR=2017
DGENRE=Soul
TTITLE0=Ike's Mood I
TTITLE1=You've Made Me So Very Happy
TTITLE2=Black Militant's Place
TTITLE3=Ain't No Sunshine
TTITLE4=Hung Up on My Baby (extended jam)
TTITLE5=Groove-A-Thon (extended jam)
TTITLE6=Do Your Thing (extended jam)
EXTD=
EXTT0=
EXTT1=
EXTT2=
EXTT3=
EXTT4=
EXTT5=
EXTT6=
PLAYORDER=
